Coordinates
version=1
nRows=22
nColumns=24
inDegrees=yes

Units are S.I. units (second, meters, Newtons, ...)
Angles are in degrees.

endheader
time	pelvis_tilt	pelvis_list	pelvis_rotation	pelvis_tx	pelvis_ty	pelvis_tz	hip_flexion_r	hip_adduction_r	hip_rotation_r	knee_angle_r	ankle_angle_r	subtalar_angle_r	mtp_angle_r	hip_flexion_l	hip_adduction_l	hip_rotation_l	knee_angle_l	ankle_angle_l	subtalar_angle_l	mtp_angle_l	lumbar_extension	lumbar_bending	lumbar_rotation
      2.34500000	     24.69087563	     -2.13830783	     -0.75689275	      0.80704228	      0.89697701	     -0.01424977	    -36.59637099	      1.85214944	     -0.44634123	    -33.60674262	     -3.87542008	     13.41204880	     53.19718209	    -11.48897065	      1.32177031	     16.85876224	     -7.32659747	    -11.52427115	    -37.11313934	     20.77051437	    -28.04055682	     -1.55342619	      5.56813010
      2.35000000	     24.73914061	     -1.90111215	     -0.85388220	      0.81345942	      0.89792190	     -0.01476567	    -35.80938676	      1.27422193	     -1.38385322	    -35.51501756	     -5.30399755	     13.27754437	     53.30433723	    -12.09904861	      1.61821925	     16.96231824	     -7.14393510	    -11.37270079	    -37.12210003	     20.53048400	    -27.96681206	     -1.85592199	      5.53333228
      2.35500000	     24.80000075	     -1.69275100	     -0.96441640	      0.81989551	      0.89887304	     -0.01527161	    -35.04748958	      0.71019893	     -2.23405326	    -37.34721839	     -6.59635596	     12.78671779	     53.28995477	    -12.76375157	      1.88121633	     16.97629136	     -6.87419881	    -11.22192632	    -37.19541543	     20.15883199	    -27.90330542	     -2.12779966	      5.50895286
      2.36000000	     24.89650858	     -1.49025498	     -1.09587317	      0.82623228	      0.89985416	     -0.01579249	    -34.31433816	      0.12354961	     -3.00555051	    -39.13323711	     -7.71252499	     12.32110454	     53.17645019	    -13.45947823	      2.14859707	     16.89801582	     -6.61351593	    -11.11737519	    -37.21141461	     20.03067803	    -27.88735875	     -2.39500324	      5.53713385
      2.36500000	     24.94993913	     -1.33208275	     -1.16907093	      0.83248261	      0.90077368	     -0.01637304	    -33.54022342	     -0.35091519	     -3.65587561	    -40.83871568	     -8.68206504	     11.27611496	     52.80375323	    -14.13093278	      2.34870524	     17.00700143	     -6.28658693	    -10.96684776	    -37.29346492	     19.73082455	    -27.83852626	     -2.58942824	      5.51273868
      2.37000000	     25.03009426	     -1.19443555	     -1.24773406	      0.83870762	      0.90170618	     -0.01696433	    -32.80110606	     -0.81437309	     -4.25389340	    -42.46886392	     -9.43894331	     10.19533764	     52.22929169	    -14.84923362	      2.52719147	     17.02805550	     -5.91922674	    -10.82899795	    -37.37416996	     19.39064453	    -27.81948849	     -2.75965741	      5.50591745
      2.37500000	     25.12053551	     -1.09431339	     -1.30624280	      0.84483917	      0.90263381	     -0.01759827	    -32.07624240	     -1.21684469	     -4.77521756	    -44.01356610	     -9.98026780	      8.98685108	     51.40210852	    -15.58120754	      2.66247925	     17.04497366	     -5.53405873	    -10.66562077	    -37.44657313	     19.00743945	    -27.82215947	     -2.87552169	      5.49746425
      2.38000000	     25.25953992	     -0.98863993	     -1.36582809	      0.85090383	      0.90359560	     -0.01827667	    -31.39779480	     -1.64077368	     -5.27400741	    -45.54704635	     -9.94622481	      8.45681143	     45.27677193	    -16.37273433	      2.81185123	     17.02572860	     -5.14407887	    -10.31888713	    -37.27742377	     16.27845422	    -27.88391930	     -2.99119159	      5.50299791
      2.38500000	     25.29382139	     -0.94864551	     -1.36498656	      0.85688415	      0.90443290	     -0.01901074	    -30.60813734	     -1.92512127	     -5.69584627	    -46.93231339	    -10.13042813	      7.09075827	     45.00648856	    -17.02866835	      2.86714120	     17.04262939	     -4.76535012	    -10.07732435	    -37.22123468	     16.17010364	    -27.84928474	     -3.00910306	      5.45958935
      2.39000000	     25.38554711	     -0.95209691	     -1.36248244	      0.86278282	      0.90534089	     -0.01972568	    -29.89465469	     -2.13895085	     -6.03269123	    -48.19194862	    -10.11327337	      5.59586192	     44.53825601	    -17.76422618	      2.87183020	     17.00781020	     -4.34347597	     -9.87107834	    -37.18072929	     16.02769707	    -27.88282465	     -2.98133880	      5.43853099
      2.39500000	     25.48161747	     -0.98641355	     -1.33943066	      0.86857786	      0.90623704	     -0.02047714	    -29.18354628	     -2.29348886	     -6.32731050	    -49.36108282	     -9.93165014	      4.08116858	     43.86384911	    -18.49835487	      2.83940289	     16.96935188	     -3.92343981	     -9.65352232	    -37.12388343	     15.86510584	    -27.93638901	     -2.90776630	      5.41995972
      2.40000000	     25.61389555	     -1.01996487	     -1.32778129	      0.87427049	      0.90714997	     -0.02119936	    -28.49737774	     -2.45123091	     -6.59346538	    -50.51172720	     -9.17742750	      3.20294145	     38.36785662	    -19.24257783	      2.81366634	     16.78669108	     -3.57173613	     -9.06648026	    -36.50792714	     14.37365178	    -28.03955367	     -2.84318598	      5.42314904
      2.40500000	     25.65488243	     -1.09853941	     -1.24690639	      0.87990052	      0.90795442	     -0.02202627	    -27.72934874	     -2.49010417	     -6.82576582	    -51.48764807	     -8.63875844	      1.73593924	     38.12083939	    -19.90629889	      2.71451942	     16.81929563	     -3.13997760	     -8.92949033	    -36.57213309	     14.26862789	    -28.05423142	     -2.69327058	      5.34596350
      2.41000000	     25.74827391	     -1.23015634	     -1.15423448	      0.88540031	      0.90880817	     -0.02284850	    -27.02220286	     -2.45084493	     -7.02214882	    -52.34120349	     -7.98879945	      0.25807885	     37.66085025	    -20.62144070	      2.55300097	     16.79532544	     -2.71090773	     -8.73694813	    -36.50215727	     14.15154782	    -28.14095678	     -2.48417989	      5.34170630
      2.41500000	     25.81075866	     -1.36926918	     -1.08183611	      0.89086054	      0.90961441	     -0.02360943	    -26.27169105	     -2.38650135	     -7.13992743	    -53.14485041	     -6.93488735	     -0.73948625	     34.12649835	    -21.26868726	      2.38926466	     16.59458976	     -2.36753746	     -8.09982491	    -35.81761018	     13.19224575	    -28.19827176	     -2.27711272	      5.29503750
      2.42000000	     25.85281906	     -1.50698469	     -0.97646961	      0.89620161	      0.91035033	     -0.02443710	    -25.49922425	     -2.29434498	     -7.27377055	    -53.82487347	     -6.05139689	     -2.02341962	     33.92640905	    -21.91400372	      2.21490711	     16.59586533	     -1.93789270	     -7.97764746	    -35.87136487	     13.11868382	    -28.25065000	     -2.05213009	      5.21764490
      2.42500000	     25.88746643	     -1.71063903	     -0.83835956	      0.90146604	      0.91109039	     -0.02528488	    -24.73212566	     -2.09196242	     -7.37716151	    -54.36491601	     -5.12009417	     -3.31202483	     33.51259967	    -22.53777330	      1.95576734	     16.57477537	     -1.52739989	     -7.76777896	    -35.75655439	     13.03579809	    -28.30287070	     -1.74362439	      5.19791815
      2.43000000	     25.89774367	     -1.88102847	     -0.73268162	      0.90664469	      0.91173894	     -0.02605800	    -23.92179244	     -1.91495054	     -7.42380404	    -54.85243077	     -4.03557936	     -4.41148323	     33.11693085	    -23.11318832	      1.74395363	     16.50366765	     -1.15385299	     -7.49206274	    -35.62266557	     12.98254180	    -28.33801126	     -1.48723001	      5.11231976
      2.43500000	     25.89721334	     -2.11045679	     -0.60425636	      0.91179751	      0.91238322	     -0.02685065	    -23.11260125	     -1.65235136	     -7.44914567	    -55.23696530	     -2.66955855	     -4.98377583	     29.55314467	    -23.64344114	      1.46156338	     16.29437917	     -0.86604561	     -6.75635960	    -34.76240243	     12.25293479	    -28.36629504	     -1.15558346	      5.08932220
      2.44000000	     25.87951320	     -2.31438852	     -0.44960982	      0.91683618	      0.91294711	     -0.02767576	    -22.28831208	     -1.38422445	     -7.49613665	    -55.49963299	     -1.55777923	     -5.98223430	     29.33957887	    -24.18550541	      1.19059765	     16.35626547	     -0.46159329	     -6.65854949	    -34.85611645	     12.15357320	    -28.38895765	     -0.83921197	      5.01885296
      2.44500000	     25.85984099	     -2.52936326	     -0.27826605	      0.92182573	      0.91347253	     -0.02853191	    -21.47683641	     -1.08683285	     -7.51825192	    -55.65364263	     -0.31989867	     -6.57159907	     29.30078537	    -24.70798675	      0.90220512	     16.42141966	     -0.09006130	     -6.46310486	    -34.82770447	     12.15052868	    -28.41491258	     -0.49954879	      4.91202123
      2.45000000	     25.76685435	     -2.75088200	     -0.16677693	      0.92676708	      0.91388030	     -0.02921378	    -20.56021360	     -0.75754915	     -7.44722306	    -55.75023198	      0.75331689	     -7.56863179	     28.80233226	    -25.13074992	      0.62469092	     16.37409605	      0.23943979	     -6.12845116	    -34.65647307	     12.09664046	    -28.36785431	     -0.18942303	      4.87383677
